<?xml version="1.0" encoding="utf-8"?>
<!-- Generator: Adobe Illustrator 12.0.0, SVG Export Plug-In . SVG Version: 6.00 Build 51448)  -->
<!DOCTYPE svg PUBLIC "-//W3C//DTD SVG 1.1//EN" "http://www.w3.org/Graphics/SVG/1.1/DTD/svg11.dtd" [
	<!ENTITY ns_svg "http://www.w3.org/2000/svg">
	<!ENTITY ns_xlink "http://www.w3.org/1999/xlink">
]>
<svg  version="1.1" id="Ebene_1" xmlns="&ns_svg;" xmlns:xlink="&ns_xlink;" width="628" height="941.31" viewBox="0 0 628 941.31"
	 overflow="visible" enable-background="new 0 0 628 941.31" xml:space="preserve">
<polygon points="326.51,466.062 420.335,412.686 502.483,412.686 593.805,465.644 593.805,472.316 507.904,523.607 414.497,523.607 
	326.51,473.15 "/>
<polygon points="33.634,465.644 120.929,412.269 207.665,412.269 300.655,465.644 300.655,472.733 207.665,526.527 120.929,526.527 
	33.634,473.984 "/>
<path d="M80.063,6.111c-25.45,0-78.813,41.974-78.813,93.825L0,458.556h27.938l86.319-53.376V38.221L95.076,6.111H80.063z"/>
<polygon points="113.279,21.124 113.279,0 547.52,0 547.52,27.249 486.911,113.984 174.442,113.984 "/>
<polygon points="253.391,275.22 253.391,126.769 374.048,126.769 374.048,275.22 320.672,414.223 306.767,414.223 "/>
<path d="M587.551,453.695l-73.808-47.121V128.996l-13.489-16.68v-5.004l66.718-93.407h5.567c14.738,0,55.46,53.141,55.46,80.063
	v359.727H587.551z"/>
<path d="M501.232,820.238c6.985,0,12.646-5.658,12.646-12.655V527.647l79.783-47.825H628V841.23
	c0,33.048-38.038,79.502-53.794,79.502h-6.775l-66.198-93.825V820.238z"/>
<polygon points="173.888,820.238 113.84,914.62 113.84,941.31 547.238,941.31 547.238,907.662 487.328,820.238 "/>
<path d="M0,843.629c0,21.877,47.322,92.573,80.708,92.573h16.681l16.451-35.027V533.614l-79.274-49.44H0V843.629z"/>
<polygon points="125.236,869.481 125.236,662.651 211.972,530.88 298.708,482.507 298.708,507.528 241.996,658.48 241.996,687.669 
	"/>
<polygon points="484.689,811.109 382.941,674.888 382.941,658.48 327.344,507.528 327.344,483.621 407.961,530.886 495.812,649.867 
	494.697,811.109 "/>
<polygon points="123.646,268.17 207.046,403.277 296.284,452.483 296.284,428.297 239.572,275.675 239.572,249.822 123.646,67.176 
	"/>
<polygon points="485.602,123.888 498.111,123.888 498.111,284.015 406.371,404.111 322.972,452.483 322.972,426.63 393.861,248.154 
	"/>
<polygon points="252.284,659.965 252.284,807.869 375.715,807.869 375.715,659.965 320.672,526.527 307.328,526.527 "/>
</svg>
