<?xml version="1.0" encoding="utf-8"?>
<!-- Generator: Adobe Illustrator 12.0.0, SVG Export Plug-In . SVG Version: 6.00 Build 51448)  -->
<!DOCTYPE svg PUBLIC "-//W3C//DTD SVG 1.1//EN" "http://www.w3.org/Graphics/SVG/1.1/DTD/svg11.dtd" [
	<!ENTITY ns_svg "http://www.w3.org/2000/svg">
	<!ENTITY ns_xlink "http://www.w3.org/1999/xlink">
]>
<svg  version="1.1" id="Ebene_1" xmlns="&ns_svg;" xmlns:xlink="&ns_xlink;" width="625" height="936.802"
	 viewBox="0 0 625 936.802" overflow="visible" enable-background="new 0 0 625 936.802" xml:space="preserve">
<path d="M79.681,6.083c-25.325,0-78.439,41.772-78.439,93.375L0,456.36h27.809l85.909-53.12V38.038L94.621,6.083H79.681z"/>
<polygon points="112.741,21.022 112.741,0 544.898,0 544.898,27.118 484.58,113.438 173.61,113.438 "/>
<path d="M584.738,451.522l-73.455-46.895V128.378l-13.423-16.6v-4.98l66.4-92.961h5.538c14.667,0,55.201,52.887,55.201,79.681
	v358.004H584.738z"/>
<path d="M498.833,816.316c6.951,0,12.593-5.635,12.593-12.593V525.121l79.395-47.596h34.174v359.678
	c0,32.889-37.856,79.123-53.535,79.123h-6.751l-65.881-93.383v-6.627H498.833z"/>
<polygon points="173.059,816.316 113.299,910.243 113.299,936.802 544.626,936.802 544.626,903.318 484.995,816.316 "/>
<path d="M0,839.582c0,21.775,47.096,92.131,80.326,92.131h16.6l16.373-34.859V531.054L34.403,481.85H0V839.582z"/>
<path d="M312.5,251.686c31.174,0,56.437,26.125,56.437,58.359c0,32.228-25.263,58.36-56.437,58.36
	c-31.17,0-56.44-26.132-56.44-58.36C256.06,277.812,281.33,251.686,312.5,251.686z"/>
<path d="M312.5,570.687c31.174,0,56.437,26.125,56.437,58.359c0,32.228-25.263,58.359-56.437,58.359
	c-31.17,0-56.44-26.132-56.44-58.359C256.06,596.812,281.33,570.687,312.5,570.687z"/>
<path d="M312.5,629.046"/>
<path d="M312.5,310.045"/>
</svg>
